<svg width="47" height="15" viewBox="0 0 47 15" fill="none" xmlns="http://www.w3.org/2000/svg">
<path d="M5.24805 11.5841C4.20271 11.5841 3.28538 11.3441 2.49605 10.8641C1.70671 10.3734 1.09338 9.69609 0.656047 8.83209C0.218714 7.96809 4.69089e-05 6.96009 4.69089e-05 5.80809C4.69089e-05 4.66676 0.218714 3.65876 0.656047 2.78409C1.10405 1.90942 1.73338 1.22676 2.54405 0.73609C3.36538 0.245423 4.33071 8.96454e-05 5.44005 8.96454e-05C6.69871 8.96454e-05 7.74938 0.30409 8.59205 0.912089C9.43471 1.50942 9.97338 2.34676 10.208 3.42409H8.65605C8.50671 2.75209 8.15471 2.21876 7.60005 1.82409C7.04538 1.42942 6.32538 1.23209 5.44005 1.23209C4.61871 1.23209 3.89871 1.41876 3.28005 1.79209C2.67205 2.15476 2.20271 2.67742 1.87205 3.36009C1.54138 4.04276 1.37605 4.85876 1.37605 5.80809C1.37605 6.75742 1.54138 7.57876 1.87205 8.27209C2.20271 8.95476 2.66138 9.47742 3.24805 9.84009C3.84538 10.2028 4.52805 10.3841 5.29605 10.3841C6.49071 10.3841 7.39205 10.0321 8.00005 9.32809C8.60805 8.62409 8.95471 7.66942 9.04005 6.46409H5.80805V5.40809H10.416V11.3921H9.18405L9.07205 9.55209C8.80538 9.98942 8.49605 10.3628 8.14405 10.6721C7.80271 10.9708 7.39738 11.2001 6.92805 11.3601C6.45871 11.5094 5.89871 11.5841 5.24805 11.5841ZM12.977 11.3921V3.36009H14.193L14.305 4.89609C14.4864 4.53342 14.7157 4.22409 14.993 3.96809C15.281 3.71209 15.6224 3.51476 16.017 3.37609C16.4117 3.23742 16.8597 3.16809 17.361 3.16809V4.57609H16.897C16.5557 4.57609 16.2304 4.62409 15.921 4.72009C15.6117 4.80542 15.3344 4.94942 15.089 5.15209C14.8544 5.34409 14.6677 5.61609 14.529 5.96809C14.3904 6.32009 14.321 6.75209 14.321 7.26409V11.3921H12.977ZM22.6868 11.5841C21.9401 11.5841 21.2681 11.4134 20.6708 11.0721C20.0735 10.7201 19.5988 10.2294 19.2468 9.60009C18.9055 8.97076 18.7348 8.22942 18.7348 7.37609C18.7348 6.52276 18.9108 5.78142 19.2628 5.15209C19.6148 4.52276 20.0895 4.03742 20.6868 3.69609C21.2948 3.34409 21.9721 3.16809 22.7188 3.16809C23.4761 3.16809 24.1535 3.34409 24.7508 3.69609C25.3481 4.03742 25.8175 4.52276 26.1588 5.15209C26.5001 5.78142 26.6708 6.52276 26.6708 7.37609C26.6708 8.22942 26.4948 8.97076 26.1428 9.60009C25.8015 10.2294 25.3268 10.7201 24.7188 11.0721C24.1215 11.4134 23.4441 11.5841 22.6868 11.5841ZM22.6868 10.4321C23.1561 10.4321 23.5881 10.3201 23.9828 10.0961C24.3775 9.86142 24.6921 9.52009 24.9268 9.07209C25.1721 8.61342 25.2948 8.04809 25.2948 7.37609C25.2948 6.69342 25.1775 6.12809 24.9428 5.68009C24.7081 5.23209 24.3935 4.89609 23.9988 4.67209C23.6041 4.43742 23.1775 4.32009 22.7188 4.32009C22.2708 4.32009 21.8441 4.43742 21.4388 4.67209C21.0441 4.89609 20.7241 5.23209 20.4788 5.68009C20.2335 6.12809 20.1108 6.69342 20.1108 7.37609C20.1108 8.04809 20.2335 8.61342 20.4788 9.07209C20.7241 9.52009 21.0388 9.86142 21.4228 10.0961C21.8175 10.3201 22.2388 10.4321 22.6868 10.4321ZM31.9832 11.5841C31.3645 11.5841 30.8205 11.4614 30.3512 11.2161C29.8925 10.9708 29.5352 10.5921 29.2792 10.0801C29.0338 9.56809 28.9112 8.92276 28.9112 8.14409V3.36009H30.2552V8.00009C30.2552 8.81076 30.4312 9.41876 30.7832 9.82409C31.1352 10.2294 31.6365 10.4321 32.2872 10.4321C32.7352 10.4321 33.1405 10.3254 33.5032 10.1121C33.8658 9.88809 34.1485 9.56809 34.3512 9.15209C34.5645 8.73609 34.6712 8.22942 34.6712 7.63209V3.36009H36.0152V11.3921H34.7992L34.7192 9.98409C34.4632 10.4854 34.0952 10.8801 33.6152 11.1681C33.1352 11.4454 32.5912 11.5841 31.9832 11.5841ZM38.727 14.9121V3.36009H39.943L40.071 4.67209C40.2417 4.41609 40.4604 4.17609 40.727 3.95209C40.9937 3.71742 41.3137 3.53076 41.687 3.39209C42.0604 3.24276 42.4924 3.16809 42.983 3.16809C43.7617 3.16809 44.439 3.35476 45.015 3.72809C45.6017 4.09076 46.055 4.59209 46.375 5.23209C46.7057 5.86142 46.871 6.58142 46.871 7.39209C46.871 8.20276 46.7057 8.92276 46.375 9.55209C46.055 10.1814 45.6017 10.6774 45.015 11.0401C44.4284 11.4028 43.7457 11.5841 42.967 11.5841C42.3164 11.5841 41.7404 11.4508 41.239 11.1841C40.7377 10.9174 40.3484 10.5441 40.071 10.0641V14.9121H38.727ZM42.807 10.4161C43.3404 10.4161 43.8097 10.2934 44.215 10.0481C44.6204 9.79209 44.935 9.43476 45.159 8.97609C45.3937 8.51742 45.511 7.98409 45.511 7.37609C45.511 6.76809 45.3937 6.23476 45.159 5.77609C44.935 5.31742 44.6204 4.96542 44.215 4.72009C43.8097 4.46409 43.3404 4.33609 42.807 4.33609C42.2737 4.33609 41.8044 4.46409 41.399 4.72009C40.9937 4.96542 40.679 5.31742 40.455 5.77609C40.231 6.23476 40.119 6.76809 40.119 7.37609C40.119 7.98409 40.231 8.51742 40.455 8.97609C40.679 9.43476 40.9937 9.79209 41.399 10.0481C41.8044 10.2934 42.2737 10.4161 42.807 10.4161Z" fill="#486284"/>
</svg>
