<svg width="39" height="15" viewBox="0 0 39 15" fill="none" xmlns="http://www.w3.org/2000/svg">
<path d="M-0.000195265 11.2002V0.00019455H1.3438V10.1282H6.5598V11.2002H-0.000195265ZM12.0979 11.3922C11.3513 11.3922 10.6793 11.2215 10.0819 10.8802C9.4846 10.5282 9.00993 10.0375 8.65793 9.4082C8.3166 8.77886 8.14593 8.03753 8.14593 7.1842C8.14593 6.33086 8.32193 5.58953 8.67393 4.9602C9.02593 4.33086 9.5006 3.84553 10.0979 3.50419C10.7059 3.1522 11.3833 2.9762 12.1299 2.9762C12.8873 2.9762 13.5646 3.1522 14.1619 3.50419C14.7593 3.84553 15.2286 4.33086 15.5699 4.9602C15.9113 5.58953 16.0819 6.33086 16.0819 7.1842C16.0819 8.03753 15.9059 8.77886 15.5539 9.4082C15.2126 10.0375 14.7379 10.5282 14.1299 10.8802C13.5326 11.2215 12.8553 11.3922 12.0979 11.3922ZM12.0979 10.2402C12.5673 10.2402 12.9993 10.1282 13.3939 9.9042C13.7886 9.66953 14.1033 9.3282 14.3379 8.8802C14.5833 8.42153 14.7059 7.8562 14.7059 7.1842C14.7059 6.50153 14.5886 5.93619 14.3539 5.48819C14.1193 5.04019 13.8046 4.7042 13.4099 4.4802C13.0153 4.24553 12.5886 4.12819 12.1299 4.12819C11.6819 4.12819 11.2553 4.24553 10.8499 4.4802C10.4553 4.7042 10.1353 5.04019 9.88993 5.48819C9.6446 5.93619 9.52193 6.50153 9.52193 7.1842C9.52193 7.8562 9.6446 8.42153 9.88993 8.8802C10.1353 9.3282 10.4499 9.66953 10.8339 9.9042C11.2286 10.1282 11.6499 10.2402 12.0979 10.2402ZM21.3066 14.9122C20.5812 14.9122 19.9412 14.8162 19.3866 14.6242C18.8319 14.4429 18.3999 14.1602 18.0906 13.7762C17.7812 13.3922 17.6266 12.9175 17.6266 12.3522C17.6266 12.1069 17.6746 11.8455 17.7706 11.5682C17.8772 11.3015 18.0532 11.0349 18.2986 10.7682C18.5546 10.5015 18.9119 10.2615 19.3706 10.0482L20.2826 10.5922C19.7279 10.8269 19.3652 11.0935 19.1946 11.3922C19.0239 11.6909 18.9386 11.9682 18.9386 12.2242C18.9386 12.5762 19.0399 12.8695 19.2426 13.1042C19.4452 13.3389 19.7226 13.5149 20.0746 13.6322C20.4372 13.7495 20.8479 13.8082 21.3066 13.8082C21.7652 13.8082 22.1599 13.7389 22.4906 13.6002C22.8212 13.4722 23.0772 13.2909 23.2586 13.0562C23.4399 12.8322 23.5306 12.5602 23.5306 12.2402C23.5306 11.8775 23.3919 11.5682 23.1146 11.3122C22.8372 11.0669 22.3146 10.9229 21.5466 10.8802C20.9066 10.8375 20.3732 10.7789 19.9466 10.7042C19.5306 10.6295 19.1839 10.5442 18.9066 10.4482C18.6292 10.3415 18.3946 10.2242 18.2026 10.0962C18.0212 9.9682 17.8559 9.83486 17.7066 9.6962V9.3282L19.2586 7.7762L20.4266 8.1922L18.8266 9.6482L19.0346 9.0882C19.1519 9.17353 19.2639 9.25353 19.3706 9.3282C19.4772 9.3922 19.6212 9.45086 19.8026 9.5042C19.9839 9.55753 20.2346 9.61086 20.5546 9.6642C20.8746 9.70686 21.3066 9.74953 21.8506 9.7922C22.5759 9.84553 23.1572 9.97353 23.5946 10.1762C24.0426 10.3789 24.3626 10.6509 24.5546 10.9922C24.7572 11.3335 24.8586 11.7335 24.8586 12.1922C24.8586 12.6509 24.7306 13.0829 24.4746 13.4882C24.2292 13.9042 23.8452 14.2455 23.3226 14.5122C22.7999 14.7789 22.1279 14.9122 21.3066 14.9122ZM21.2906 8.6722C20.6186 8.6722 20.0479 8.54953 19.5786 8.3042C19.1092 8.0482 18.7519 7.70686 18.5066 7.2802C18.2612 6.84286 18.1386 6.35753 18.1386 5.82419C18.1386 5.29086 18.2612 4.81086 18.5066 4.38419C18.7519 3.95753 19.1092 3.6162 19.5786 3.3602C20.0479 3.1042 20.6186 2.9762 21.2906 2.9762C21.9732 2.9762 22.5492 3.1042 23.0186 3.3602C23.4879 3.6162 23.8452 3.95753 24.0906 4.38419C24.3359 4.81086 24.4586 5.29086 24.4586 5.82419C24.4586 6.35753 24.3359 6.84286 24.0906 7.2802C23.8452 7.70686 23.4879 8.0482 23.0186 8.3042C22.5492 8.54953 21.9732 8.6722 21.2906 8.6722ZM21.2906 7.5682C21.8666 7.5682 22.3199 7.4242 22.6506 7.1362C22.9919 6.83753 23.1626 6.4002 23.1626 5.82419C23.1626 5.26953 22.9919 4.84286 22.6506 4.5442C22.3199 4.24553 21.8666 4.09619 21.2906 4.09619C20.7252 4.09619 20.2719 4.24553 19.9306 4.5442C19.5892 4.84286 19.4186 5.26953 19.4186 5.82419C19.4186 6.4002 19.5892 6.83753 19.9306 7.1362C20.2719 7.4242 20.7252 7.5682 21.2906 7.5682ZM22.6026 4.30419L22.2026 3.16819H25.4986V4.1762L22.6026 4.30419ZM27.6248 11.2002V0.00019455H28.9688V11.2002H27.6248ZM31.7632 11.2002V3.16819H32.9792L33.0592 4.57619C33.3152 4.07486 33.6778 3.68553 34.1472 3.4082C34.6272 3.1202 35.1712 2.9762 35.7792 2.9762C36.4085 2.9762 36.9525 3.09886 37.4112 3.34419C37.8698 3.58953 38.2272 3.96819 38.4832 4.4802C38.7392 4.9922 38.8672 5.63753 38.8672 6.41619V11.2002H37.5232V6.56019C37.5232 5.74953 37.3472 5.14153 36.9952 4.7362C36.6432 4.33086 36.1365 4.12819 35.4752 4.12819C35.0272 4.12819 34.6218 4.24019 34.2592 4.46419C33.9072 4.67753 33.6245 4.99219 33.4112 5.4082C33.2085 5.8242 33.1072 6.33086 33.1072 6.92819V11.2002H31.7632Z" fill="#486284"/>
</svg>
