<svg width="163" height="25" viewBox="0 0 163 25" fill="none" xmlns="http://www.w3.org/2000/svg">
<path d="M6.33595 24.2241V3.74412H-5.07534e-05V0.384119H16.32V3.74412H10.0799V24.2241H6.33595ZM15.9249 24.2241V6.91212H19.3809V10.4001L19.0609 9.88812C19.4449 8.75745 20.0636 7.94679 20.9169 7.45612C21.7703 6.94412 22.7943 6.68812 23.9889 6.68812H25.0449V9.98412H23.5409C22.3463 9.98412 21.3756 10.3575 20.6289 11.1041C19.9036 11.8295 19.5409 12.8748 19.5409 14.2401V24.2241H15.9249ZM31.7427 24.6081C30.5694 24.6081 29.5347 24.4055 28.6387 24.0001C27.764 23.5735 27.0814 22.9975 26.5907 22.2721C26.1 21.5255 25.8547 20.6508 25.8547 19.6481C25.8547 18.7095 26.0574 17.8668 26.4627 17.1201C26.8894 16.3735 27.54 15.7441 28.4147 15.2321C29.2894 14.7201 30.388 14.3575 31.7107 14.1441L37.7267 13.1521V16.0001L32.4147 16.9281C31.4547 17.0988 30.7507 17.4081 30.3027 17.8561C29.8547 18.2828 29.6307 18.8375 29.6307 19.5201C29.6307 20.1815 29.876 20.7255 30.3667 21.1521C30.8787 21.5575 31.5294 21.7601 32.3187 21.7601C33.3 21.7601 34.1534 21.5468 34.8787 21.1201C35.6254 20.6935 36.2014 20.1281 36.6067 19.4241C37.012 18.6988 37.2147 17.8988 37.2147 17.0241V12.5761C37.2147 11.7228 36.8947 11.0295 36.2547 10.4961C35.636 9.94145 34.804 9.66412 33.7587 9.66412C32.7987 9.66412 31.956 9.92012 31.2307 10.4321C30.5267 10.9228 30.004 11.5628 29.6627 12.3521L26.6547 10.8481C26.9747 9.99479 27.4974 9.24812 28.2227 8.60812C28.948 7.94679 29.7907 7.43479 30.7507 7.07212C31.732 6.70945 32.7667 6.52812 33.8547 6.52812C35.22 6.52812 36.4254 6.78412 37.4707 7.29612C38.5374 7.80812 39.3587 8.52279 39.9347 9.44012C40.532 10.3361 40.8307 11.3815 40.8307 12.5761V24.2241H37.3747V21.0881L38.1107 21.1841C37.7054 21.8881 37.1827 22.4961 36.5427 23.0081C35.924 23.5201 35.2094 23.9148 34.3987 24.1921C33.6094 24.4695 32.724 24.6081 31.7427 24.6081ZM48.8102 24.2241L42.0262 6.91212H45.9622L51.1782 21.0241H49.7382L54.9542 6.91212H58.9222L52.1062 24.2241H48.8102ZM68.2354 24.6081C66.5074 24.6081 64.9714 24.2135 63.6274 23.4241C62.3048 22.6135 61.2701 21.5255 60.5234 20.1601C59.7768 18.7735 59.4034 17.2268 59.4034 15.5201C59.4034 13.7708 59.7768 12.2241 60.5234 10.8801C61.2914 9.53612 62.3154 8.48012 63.5954 7.71212C64.8754 6.92279 66.3261 6.52812 67.9474 6.52812C69.2488 6.52812 70.4114 6.75212 71.4354 7.20012C72.4594 7.64812 73.3235 8.26679 74.0275 9.05612C74.7315 9.82412 75.2648 10.7095 75.6274 11.7121C76.0114 12.7148 76.2034 13.7815 76.2034 14.9121C76.2034 15.1895 76.1928 15.4775 76.1714 15.7761C76.1501 16.0748 76.1074 16.3521 76.0434 16.6081H62.2514V13.7281H73.9954L72.2674 15.0401C72.4808 13.9948 72.4061 13.0668 72.0434 12.2561C71.7021 11.4241 71.1688 10.7735 70.4434 10.3041C69.7394 9.81345 68.9074 9.56812 67.9474 9.56812C66.9874 9.56812 66.1341 9.81345 65.3874 10.3041C64.6408 10.7735 64.0648 11.4561 63.6594 12.3521C63.2541 13.2268 63.0941 14.2935 63.1794 15.5521C63.0728 16.7255 63.2328 17.7495 63.6594 18.6241C64.1074 19.4988 64.7261 20.1815 65.5154 20.6721C66.3261 21.1628 67.2434 21.4081 68.2674 21.4081C69.3128 21.4081 70.1981 21.1735 70.9234 20.7041C71.6701 20.2348 72.2568 19.6268 72.6834 18.8801L75.6274 20.3201C75.2861 21.1308 74.7528 21.8668 74.0275 22.5281C73.3235 23.1681 72.4701 23.6801 71.4675 24.0641C70.4861 24.4268 69.4088 24.6081 68.2354 24.6081ZM78.7724 24.2241V0.000120163H82.3884V24.2241H78.7724ZM90.6419 24.2241V0.384119H94.1619L103.122 12.8001H101.362L110.162 0.384119H113.682V24.2241H109.938V4.83212L111.346 5.21612L102.354 17.5041H101.97L93.1699 5.21612L94.4179 4.83212V24.2241H90.6419ZM122.483 24.6081C121.309 24.6081 120.275 24.4055 119.379 24.0001C118.504 23.5735 117.821 22.9975 117.331 22.2721C116.84 21.5255 116.595 20.6508 116.595 19.6481C116.595 18.7095 116.797 17.8668 117.203 17.1201C117.629 16.3735 118.28 15.7441 119.155 15.2321C120.029 14.7201 121.128 14.3575 122.451 14.1441L128.467 13.1521V16.0001L123.155 16.9281C122.195 17.0988 121.491 17.4081 121.043 17.8561C120.595 18.2828 120.371 18.8375 120.371 19.5201C120.371 20.1815 120.616 20.7255 121.107 21.1521C121.619 21.5575 122.269 21.7601 123.059 21.7601C124.04 21.7601 124.893 21.5468 125.619 21.1201C126.365 20.6935 126.941 20.1281 127.347 19.4241C127.752 18.6988 127.955 17.8988 127.955 17.0241V12.5761C127.955 11.7228 127.635 11.0295 126.995 10.4961C126.376 9.94145 125.544 9.66412 124.499 9.66412C123.539 9.66412 122.696 9.92012 121.971 10.4321C121.267 10.9228 120.744 11.5628 120.403 12.3521L117.395 10.8481C117.715 9.99479 118.237 9.24812 118.963 8.60812C119.688 7.94679 120.531 7.43479 121.491 7.07212C122.472 6.70945 123.507 6.52812 124.595 6.52812C125.96 6.52812 127.165 6.78412 128.211 7.29612C129.277 7.80812 130.099 8.52279 130.675 9.44012C131.272 10.3361 131.571 11.3815 131.571 12.5761V24.2241H128.115V21.0881L128.851 21.1841C128.445 21.8881 127.923 22.4961 127.283 23.0081C126.664 23.5201 125.949 23.9148 125.139 24.1921C124.349 24.4695 123.464 24.6081 122.483 24.6081ZM142.014 24.4161C140.201 24.4161 138.793 23.9041 137.79 22.8801C136.788 21.8561 136.286 20.4161 136.286 18.5601V10.1761H133.246V6.91212H133.726C134.537 6.91212 135.166 6.67745 135.614 6.20812C136.062 5.73879 136.286 5.09879 136.286 4.28812V2.94412H139.902V6.91212H143.838V10.1761H139.902V18.4001C139.902 18.9975 139.998 19.5095 140.19 19.9361C140.382 20.3415 140.692 20.6615 141.118 20.8961C141.545 21.1095 142.1 21.2161 142.782 21.2161C142.953 21.2161 143.145 21.2055 143.358 21.1841C143.572 21.1628 143.774 21.1415 143.966 21.1201V24.2241C143.668 24.2668 143.337 24.3095 142.974 24.3521C142.612 24.3948 142.292 24.4161 142.014 24.4161ZM154.35 24.6081C152.622 24.6081 151.086 24.2135 149.742 23.4241C148.42 22.6135 147.385 21.5255 146.638 20.1601C145.892 18.7735 145.518 17.2268 145.518 15.5201C145.518 13.7708 145.892 12.2241 146.638 10.8801C147.406 9.53612 148.43 8.48012 149.71 7.71212C150.99 6.92279 152.441 6.52812 154.062 6.52812C155.364 6.52812 156.526 6.75212 157.55 7.20012C158.574 7.64812 159.438 8.26679 160.142 9.05612C160.846 9.82412 161.38 10.7095 161.742 11.7121C162.126 12.7148 162.318 13.7815 162.318 14.9121C162.318 15.1895 162.308 15.4775 162.286 15.7761C162.265 16.0748 162.222 16.3521 162.158 16.6081H148.366V13.7281H160.11L158.382 15.0401C158.596 13.9948 158.521 13.0668 158.158 12.2561C157.817 11.4241 157.284 10.7735 156.558 10.3041C155.854 9.81345 155.022 9.56812 154.062 9.56812C153.102 9.56812 152.249 9.81345 151.502 10.3041C150.756 10.7735 150.18 11.4561 149.774 12.3521C149.369 13.2268 149.209 14.2935 149.294 15.5521C149.188 16.7255 149.348 17.7495 149.774 18.6241C150.222 19.4988 150.841 20.1815 151.63 20.6721C152.441 21.1628 153.358 21.4081 154.382 21.4081C155.428 21.4081 156.313 21.1735 157.038 20.7041C157.785 20.2348 158.372 19.6268 158.798 18.8801L161.742 20.3201C161.401 21.1308 160.868 21.8668 160.142 22.5281C159.438 23.1681 158.585 23.6801 157.582 24.0641C156.601 24.4268 155.524 24.6081 154.35 24.6081Z" fill="#1A202C"/>
</svg>
