<svg width="60" height="16" viewBox="0 0 60 16" fill="none" xmlns="http://www.w3.org/2000/svg">
<path d="M-0.000195265 11.3921V0.192089H1.3438V10.3201H6.5598V11.3921H-0.000195265ZM12.0979 11.5841C11.3513 11.5841 10.6793 11.4134 10.0819 11.0721C9.4846 10.7201 9.00993 10.2294 8.65793 9.60009C8.3166 8.97076 8.14593 8.22942 8.14593 7.37609C8.14593 6.52276 8.32193 5.78142 8.67393 5.15209C9.02593 4.52276 9.5006 4.03742 10.0979 3.69609C10.7059 3.34409 11.3833 3.16809 12.1299 3.16809C12.8873 3.16809 13.5646 3.34409 14.1619 3.69609C14.7593 4.03742 15.2286 4.52276 15.5699 5.15209C15.9113 5.78142 16.0819 6.52276 16.0819 7.37609C16.0819 8.22942 15.9059 8.97076 15.5539 9.60009C15.2126 10.2294 14.7379 10.7201 14.1299 11.0721C13.5326 11.4134 12.8553 11.5841 12.0979 11.5841ZM12.0979 10.4321C12.5673 10.4321 12.9993 10.3201 13.3939 10.0961C13.7886 9.86142 14.1033 9.52009 14.3379 9.07209C14.5833 8.61342 14.7059 8.04809 14.7059 7.37609C14.7059 6.69342 14.5886 6.12809 14.3539 5.68009C14.1193 5.23209 13.8046 4.89609 13.4099 4.67209C13.0153 4.43742 12.5886 4.32009 12.1299 4.32009C11.6819 4.32009 11.2553 4.43742 10.8499 4.67209C10.4553 4.89609 10.1353 5.23209 9.88993 5.68009C9.6446 6.12809 9.52193 6.69342 9.52193 7.37609C9.52193 8.04809 9.6446 8.61342 9.88993 9.07209C10.1353 9.52009 10.4499 9.86142 10.8339 10.0961C11.2286 10.3201 11.6499 10.4321 12.0979 10.4321ZM21.3066 15.1041C20.5812 15.1041 19.9412 15.0081 19.3866 14.8161C18.8319 14.6348 18.3999 14.3521 18.0906 13.9681C17.7812 13.5841 17.6266 13.1094 17.6266 12.5441C17.6266 12.2988 17.6746 12.0374 17.7706 11.7601C17.8772 11.4934 18.0532 11.2268 18.2986 10.9601C18.5546 10.6934 18.9119 10.4534 19.3706 10.2401L20.2826 10.7841C19.7279 11.0188 19.3652 11.2854 19.1946 11.5841C19.0239 11.8828 18.9386 12.1601 18.9386 12.4161C18.9386 12.7681 19.0399 13.0614 19.2426 13.2961C19.4452 13.5308 19.7226 13.7068 20.0746 13.8241C20.4372 13.9414 20.8479 14.0001 21.3066 14.0001C21.7652 14.0001 22.1599 13.9308 22.4906 13.7921C22.8212 13.6641 23.0772 13.4828 23.2586 13.2481C23.4399 13.0241 23.5306 12.7521 23.5306 12.4321C23.5306 12.0694 23.3919 11.7601 23.1146 11.5041C22.8372 11.2588 22.3146 11.1148 21.5466 11.0721C20.9066 11.0294 20.3732 10.9708 19.9466 10.8961C19.5306 10.8214 19.1839 10.7361 18.9066 10.6401C18.6292 10.5334 18.3946 10.4161 18.2026 10.2881C18.0212 10.1601 17.8559 10.0268 17.7066 9.88809V9.52009L19.2586 7.96809L20.4266 8.38409L18.8266 9.84009L19.0346 9.28009C19.1519 9.36542 19.2639 9.44542 19.3706 9.52009C19.4772 9.58409 19.6212 9.64276 19.8026 9.69609C19.9839 9.74942 20.2346 9.80276 20.5546 9.85609C20.8746 9.89876 21.3066 9.94142 21.8506 9.98409C22.5759 10.0374 23.1572 10.1654 23.5946 10.3681C24.0426 10.5708 24.3626 10.8428 24.5546 11.1841C24.7572 11.5254 24.8586 11.9254 24.8586 12.3841C24.8586 12.8428 24.7306 13.2748 24.4746 13.6801C24.2292 14.0961 23.8452 14.4374 23.3226 14.7041C22.7999 14.9708 22.1279 15.1041 21.3066 15.1041ZM21.2906 8.86409C20.6186 8.86409 20.0479 8.74142 19.5786 8.49609C19.1092 8.24009 18.7519 7.89876 18.5066 7.47209C18.2612 7.03476 18.1386 6.54942 18.1386 6.01609C18.1386 5.48276 18.2612 5.00276 18.5066 4.57609C18.7519 4.14942 19.1092 3.80809 19.5786 3.55209C20.0479 3.29609 20.6186 3.16809 21.2906 3.16809C21.9732 3.16809 22.5492 3.29609 23.0186 3.55209C23.4879 3.80809 23.8452 4.14942 24.0906 4.57609C24.3359 5.00276 24.4586 5.48276 24.4586 6.01609C24.4586 6.54942 24.3359 7.03476 24.0906 7.47209C23.8452 7.89876 23.4879 8.24009 23.0186 8.49609C22.5492 8.74142 21.9732 8.86409 21.2906 8.86409ZM21.2906 7.76009C21.8666 7.76009 22.3199 7.61609 22.6506 7.32809C22.9919 7.02942 23.1626 6.59209 23.1626 6.01609C23.1626 5.46142 22.9919 5.03476 22.6506 4.73609C22.3199 4.43742 21.8666 4.28809 21.2906 4.28809C20.7252 4.28809 20.2719 4.43742 19.9306 4.73609C19.5892 5.03476 19.4186 5.46142 19.4186 6.01609C19.4186 6.59209 19.5892 7.02942 19.9306 7.32809C20.2719 7.61609 20.7252 7.76009 21.2906 7.76009ZM22.6026 4.49609L22.2026 3.36009H25.4986V4.36809L22.6026 4.49609ZM37.3828 11.5841C36.3055 11.5841 35.3561 11.3441 34.5348 10.8641C33.7241 10.3734 33.0841 9.69609 32.6148 8.83209C32.1561 7.95742 31.9268 6.94409 31.9268 5.79209C31.9268 4.65076 32.1561 3.64809 32.6148 2.78409C33.0841 1.90942 33.7241 1.22676 34.5348 0.73609C35.3561 0.245423 36.3055 8.96454e-05 37.3828 8.96454e-05C38.4815 8.96454e-05 39.4361 0.245423 40.2468 0.73609C41.0681 1.22676 41.7028 1.90942 42.1508 2.78409C42.6095 3.64809 42.8388 4.65076 42.8388 5.79209C42.8388 6.94409 42.6095 7.95742 42.1508 8.83209C41.7028 9.69609 41.0681 10.3734 40.2468 10.8641C39.4361 11.3441 38.4815 11.5841 37.3828 11.5841ZM37.3828 10.4001C38.1935 10.4001 38.9028 10.2188 39.5108 9.85609C40.1295 9.48276 40.6095 8.95476 40.9508 8.27209C41.2921 7.57876 41.4628 6.75209 41.4628 5.79209C41.4628 4.83209 41.2921 4.01076 40.9508 3.32809C40.6095 2.63476 40.1295 2.10676 39.5108 1.74409C38.9028 1.38142 38.1935 1.20009 37.3828 1.20009C36.5721 1.20009 35.8628 1.38142 35.2548 1.74409C34.6468 2.10676 34.1668 2.63476 33.8148 3.32809C33.4735 4.01076 33.3028 4.83209 33.3028 5.79209C33.3028 6.75209 33.4735 7.57876 33.8148 8.27209C34.1668 8.95476 34.6468 9.48276 35.2548 9.85609C35.8628 10.2188 36.5721 10.4001 37.3828 10.4001ZM48.1287 11.5841C47.51 11.5841 46.966 11.4614 46.4967 11.2161C46.038 10.9708 45.6807 10.5921 45.4247 10.0801C45.1793 9.56809 45.0567 8.92276 45.0567 8.14409V3.36009H46.4007V8.00009C46.4007 8.81076 46.5767 9.41876 46.9287 9.82409C47.2807 10.2294 47.782 10.4321 48.4327 10.4321C48.8807 10.4321 49.286 10.3254 49.6487 10.1121C50.0113 9.88809 50.294 9.56809 50.4967 9.15209C50.71 8.73609 50.8167 8.22942 50.8167 7.63209V3.36009H52.1607V11.3921H50.9447L50.8647 9.98409C50.6087 10.4854 50.2407 10.8801 49.7607 11.1681C49.2807 11.4454 48.7367 11.5841 48.1287 11.5841ZM58.0406 11.3921C57.5606 11.3921 57.1446 11.3174 56.7926 11.1681C56.4406 11.0188 56.1686 10.7681 55.9766 10.4161C55.7952 10.0534 55.7046 9.56809 55.7046 8.96009V4.49609H54.3126V3.36009H55.7046L55.8806 1.42409H57.0486V3.36009H59.4006V4.49609H57.0486V8.96009C57.0486 9.46142 57.1499 9.80276 57.3526 9.98409C57.5552 10.1548 57.9126 10.2401 58.4246 10.2401H59.2886V11.3921H58.0406Z" fill="#486284"/>
</svg>
