<svg width="63" height="12" viewBox="0 0 63 12" fill="none" xmlns="http://www.w3.org/2000/svg">
<path d="M-0.000195265 11.3921V0.192089H1.5678L5.53581 8.01609L9.50381 0.192089H11.0878V11.3921H9.7438V2.59209L6.0478 9.82409H5.0398L1.3438 2.62409V11.3921H-0.000195265ZM16.7522 11.3921V7.13609L13.1042 0.192089H14.6242L17.6482 6.27209H17.2162L20.2242 0.192089H21.7282L18.0962 7.13609V11.3921H16.7522ZM23.7498 11.3921V0.192089H27.4138C28.2885 0.192089 29.0085 0.341422 29.5738 0.640089C30.1391 0.928089 30.5605 1.31742 30.8378 1.80809C31.1151 2.29876 31.2538 2.85342 31.2538 3.47209C31.2538 4.09076 31.1151 4.65076 30.8378 5.15209C30.5711 5.64276 30.1551 6.03742 29.5898 6.33609C29.0245 6.62409 28.2991 6.76809 27.4138 6.76809H25.0938V11.3921H23.7498ZM25.0938 5.63209H27.3818C28.2778 5.63209 28.9178 5.44009 29.3018 5.05609C29.6858 4.66142 29.8778 4.13342 29.8778 3.47209C29.8778 2.78942 29.6858 2.26142 29.3018 1.88809C28.9178 1.50409 28.2778 1.31209 27.3818 1.31209H25.0938V5.63209ZM31.4048 11.3921L35.5328 0.192089H36.9568L41.0688 11.3921H39.6448L36.2368 1.87209L32.8128 11.3921H31.4048ZM33.2928 8.51209L33.6768 7.42409H38.7488L39.1328 8.51209H33.2928ZM47.4092 11.5841C46.3638 11.5841 45.4465 11.3441 44.6572 10.8641C43.8678 10.3734 43.2545 9.69609 42.8172 8.83209C42.3798 7.96809 42.1612 6.96009 42.1612 5.80809C42.1612 4.66676 42.3798 3.65876 42.8172 2.78409C43.2652 1.90942 43.8945 1.22676 44.7052 0.73609C45.5265 0.245423 46.4918 8.96454e-05 47.6012 8.96454e-05C48.8598 8.96454e-05 49.9105 0.30409 50.7532 0.912089C51.5958 1.50942 52.1345 2.34676 52.3692 3.42409H50.8172C50.6678 2.75209 50.3158 2.21876 49.7612 1.82409C49.2065 1.42942 48.4865 1.23209 47.6012 1.23209C46.7798 1.23209 46.0598 1.41876 45.4412 1.79209C44.8332 2.15476 44.3638 2.67742 44.0332 3.36009C43.7025 4.04276 43.5372 4.85876 43.5372 5.80809C43.5372 6.75742 43.7025 7.57876 44.0332 8.27209C44.3638 8.95476 44.8225 9.47742 45.4092 9.84009C46.0065 10.2028 46.6892 10.3841 47.4572 10.3841C48.6518 10.3841 49.5532 10.0321 50.1612 9.32809C50.7692 8.62409 51.1158 7.66942 51.2012 6.46409H47.9692V5.40809H52.5772V11.3921H51.3452L51.2332 9.55209C50.9665 9.98942 50.6572 10.3628 50.3052 10.6721C49.9638 10.9708 49.5585 11.2001 49.0892 11.3601C48.6198 11.5094 48.0598 11.5841 47.4092 11.5841ZM55.2342 11.3921V0.192089H62.1622V1.29609H56.5782V5.20009H61.6822V6.28809H56.5782V10.2881H62.1622V11.3921H55.2342Z" fill="#486284"/>
</svg>
