<svg width="70" height="12" viewBox="0 0 70 12" fill="none" xmlns="http://www.w3.org/2000/svg">
<path d="M3.47213 11.712C2.82146 11.712 2.24546 11.6054 1.74413 11.392C1.24279 11.168 0.842792 10.8534 0.544125 10.448C0.256125 10.0427 0.0747917 9.56802 0.000125051 9.02402H1.37613C1.44013 9.30135 1.55746 9.56269 1.72813 9.80802C1.89879 10.0427 2.12813 10.2294 2.41613 10.368C2.71479 10.5067 3.07213 10.576 3.48813 10.576C3.87213 10.576 4.18679 10.5227 4.43213 10.416C4.67746 10.2987 4.85879 10.144 4.97613 9.95202C5.09346 9.76002 5.15213 9.55202 5.15213 9.32802C5.15213 9.00802 5.07213 8.76269 4.91213 8.59202C4.76279 8.42135 4.53879 8.28802 4.24013 8.19202C3.94146 8.08535 3.58413 7.99469 3.16813 7.92002C2.81613 7.85602 2.46946 7.77069 2.12813 7.66402C1.79746 7.55735 1.49879 7.41869 1.23213 7.24802C0.965458 7.07735 0.752125 6.86402 0.592125 6.60802C0.432125 6.34135 0.352125 6.02669 0.352125 5.66402C0.352125 5.20535 0.469458 4.80002 0.704125 4.44802C0.949458 4.08535 1.28546 3.80269 1.71213 3.60002C2.14946 3.39735 2.66679 3.29602 3.26413 3.29602C4.11746 3.29602 4.81079 3.50402 5.34413 3.92002C5.88813 4.33602 6.20279 4.93869 6.28813 5.72802H4.96013C4.91746 5.32269 4.74679 5.00802 4.44813 4.78402C4.14946 4.54935 3.74946 4.43202 3.24813 4.43202C2.74679 4.43202 2.36279 4.53335 2.09613 4.73602C1.84013 4.93869 1.71213 5.20535 1.71213 5.53602C1.71213 5.74935 1.78146 5.93602 1.92013 6.09602C2.06946 6.25602 2.28813 6.39469 2.57613 6.51202C2.86413 6.61869 3.21079 6.71469 3.61613 6.80002C4.13879 6.89602 4.61879 7.02402 5.05613 7.18402C5.49346 7.34402 5.84546 7.57869 6.11213 7.88802C6.38946 8.19735 6.52813 8.64002 6.52813 9.21602C6.53879 9.71735 6.41613 10.1547 6.16013 10.528C5.91479 10.9014 5.56279 11.1947 5.10413 11.408C4.64546 11.6107 4.10146 11.712 3.47213 11.712ZM12.6114 11.712C11.854 11.712 11.1714 11.536 10.5634 11.184C9.96604 10.832 9.49138 10.3414 9.13938 9.71202C8.79804 9.08269 8.62738 8.34669 8.62738 7.50402C8.62738 6.66135 8.79804 5.92535 9.13938 5.29602C9.49138 4.66669 9.96604 4.17602 10.5634 3.82402C11.1714 3.47202 11.854 3.29602 12.6114 3.29602C13.5714 3.29602 14.3714 3.54669 15.0114 4.04802C15.6514 4.53869 16.0567 5.20002 16.2274 6.03202H14.8514C14.7447 5.53069 14.4834 5.14135 14.0674 4.86402C13.6514 4.58669 13.1607 4.44802 12.5954 4.44802C12.1367 4.44802 11.71 4.56535 11.3154 4.80002C10.9314 5.02402 10.6167 5.36535 10.3714 5.82402C10.126 6.27202 10.0034 6.83202 10.0034 7.50402C10.0034 8.00535 10.0727 8.44802 10.2114 8.83202C10.3607 9.21602 10.5527 9.54135 10.7874 9.80802C11.022 10.064 11.294 10.256 11.6034 10.384C11.9234 10.512 12.254 10.576 12.5954 10.576C12.9794 10.576 13.326 10.5174 13.6354 10.4C13.9447 10.272 14.206 10.0907 14.4194 9.85602C14.6327 9.61069 14.7767 9.31735 14.8514 8.97602H16.2274C16.0567 9.79735 15.646 10.4587 14.9954 10.96C14.3554 11.4614 13.5607 11.712 12.6114 11.712ZM18.604 11.52V1.90735e-05H19.948V4.84802C20.2253 4.35735 20.604 3.97869 21.084 3.71202C21.564 3.43469 22.0973 3.29602 22.684 3.29602C23.3027 3.29602 23.836 3.42402 24.284 3.68002C24.7427 3.92535 25.0947 4.30402 25.34 4.81602C25.596 5.32802 25.724 5.97335 25.724 6.75202V11.52H24.396V6.89602C24.396 6.08535 24.2253 5.47735 23.884 5.07202C23.5427 4.65602 23.0467 4.44802 22.396 4.44802C21.9373 4.44802 21.5213 4.56002 21.148 4.78402C20.7853 4.99735 20.492 5.31735 20.268 5.74402C20.0547 6.16002 19.948 6.67202 19.948 7.28002V11.52H18.604ZM31.8435 11.712C31.0968 11.712 30.4302 11.536 29.8435 11.184C29.2568 10.832 28.7928 10.3414 28.4515 9.71202C28.1208 9.08269 27.9555 8.34669 27.9555 7.50402C27.9555 6.65069 28.1208 5.91469 28.4515 5.29602C28.7822 4.66669 29.2408 4.17602 29.8275 3.82402C30.4248 3.47202 31.1075 3.29602 31.8755 3.29602C32.6648 3.29602 33.3368 3.47202 33.8915 3.82402C34.4462 4.17602 34.8675 4.63469 35.1555 5.20002C35.4542 5.76535 35.6035 6.38935 35.6035 7.07202C35.6035 7.17869 35.6035 7.29069 35.6035 7.40802C35.6035 7.52535 35.5982 7.65869 35.5875 7.80802H28.9635V6.76802H34.2755C34.2435 6.03202 33.9982 5.46135 33.5395 5.05602C33.0915 4.64002 32.5262 4.43202 31.8435 4.43202C31.3955 4.43202 30.9742 4.53869 30.5795 4.75202C30.1848 4.95469 29.8648 5.25335 29.6195 5.64802C29.3848 6.04269 29.2675 6.53869 29.2675 7.13602V7.58402C29.2675 8.24535 29.3902 8.80002 29.6355 9.24802C29.8808 9.68535 30.1955 10.016 30.5795 10.24C30.9742 10.464 31.3955 10.576 31.8435 10.576C32.4088 10.576 32.8728 10.4534 33.2355 10.208C33.6088 9.95202 33.8808 9.60535 34.0515 9.16802H35.3795C35.2408 9.65869 35.0115 10.096 34.6915 10.48C34.3715 10.8534 33.9715 11.152 33.4915 11.376C33.0222 11.6 32.4728 11.712 31.8435 11.712ZM41.4693 11.712C40.6906 11.712 40.0026 11.5307 39.4053 11.168C38.8186 10.7947 38.3599 10.2934 38.0293 9.66402C37.7093 9.02402 37.5493 8.29869 37.5493 7.48802C37.5493 6.67735 37.7093 5.95735 38.0293 5.32802C38.3599 4.69869 38.8186 4.20269 39.4053 3.84002C40.0026 3.47735 40.6959 3.29602 41.4852 3.29602C42.1359 3.29602 42.7119 3.42935 43.2133 3.69602C43.7146 3.96269 44.0986 4.33602 44.3653 4.81602V1.90735e-05H45.7093V11.52H44.4933L44.3653 10.208C44.1946 10.464 43.9759 10.7094 43.7093 10.944C43.4533 11.168 43.1386 11.3547 42.7653 11.504C42.3919 11.6427 41.9599 11.712 41.4693 11.712ZM41.6133 10.544C42.1466 10.544 42.6159 10.4214 43.0213 10.176C43.4373 9.92002 43.7573 9.56269 43.9813 9.10402C44.2053 8.64535 44.3173 8.11202 44.3173 7.50402C44.3173 6.89602 44.2053 6.36269 43.9813 5.90402C43.7573 5.44535 43.4373 5.09335 43.0213 4.84802C42.6159 4.59202 42.1466 4.46402 41.6133 4.46402C41.1013 4.46402 40.6373 4.59202 40.2213 4.84802C39.8159 5.09335 39.4959 5.44535 39.2613 5.90402C39.0373 6.36269 38.9253 6.89602 38.9253 7.50402C38.9253 8.11202 39.0373 8.64535 39.2613 9.10402C39.4959 9.56269 39.8159 9.92002 40.2213 10.176C40.6373 10.4214 41.1013 10.544 41.6133 10.544ZM51.3445 11.712C50.7258 11.712 50.1818 11.5894 49.7125 11.344C49.2538 11.0987 48.8965 10.72 48.6405 10.208C48.3952 9.69602 48.2725 9.05069 48.2725 8.27202V3.48802H49.6165V8.12802C49.6165 8.93869 49.7925 9.54669 50.1445 9.95202C50.4965 10.3574 50.9978 10.56 51.6485 10.56C52.0965 10.56 52.5018 10.4534 52.8645 10.24C53.2272 10.016 53.5098 9.69602 53.7125 9.28002C53.9258 8.86402 54.0325 8.35735 54.0325 7.76002V3.48802H55.3765V11.52H54.1605L54.0805 10.112C53.8245 10.6134 53.4565 11.008 52.9765 11.296C52.4965 11.5734 51.9525 11.712 51.3445 11.712ZM58.0884 11.52V1.90735e-05H59.4324V11.52H58.0884ZM65.7029 11.712C64.9562 11.712 64.2895 11.536 63.7029 11.184C63.1162 10.832 62.6522 10.3414 62.3109 9.71202C61.9802 9.08269 61.8149 8.34669 61.8149 7.50402C61.8149 6.65069 61.9802 5.91469 62.3109 5.29602C62.6415 4.66669 63.1002 4.17602 63.6869 3.82402C64.2842 3.47202 64.9669 3.29602 65.7349 3.29602C66.5242 3.29602 67.1962 3.47202 67.7509 3.82402C68.3055 4.17602 68.7269 4.63469 69.0149 5.20002C69.3135 5.76535 69.4629 6.38935 69.4629 7.07202C69.4629 7.17869 69.4629 7.29069 69.4629 7.40802C69.4629 7.52535 69.4575 7.65869 69.4469 7.80802H62.8229V6.76802H68.1349C68.1029 6.03202 67.8575 5.46135 67.3989 5.05602C66.9509 4.64002 66.3855 4.43202 65.7029 4.43202C65.2549 4.43202 64.8335 4.53869 64.4389 4.75202C64.0442 4.95469 63.7242 5.25335 63.4789 5.64802C63.2442 6.04269 63.1269 6.53869 63.1269 7.13602V7.58402C63.1269 8.24535 63.2495 8.80002 63.4949 9.24802C63.7402 9.68535 64.0549 10.016 64.4389 10.24C64.8335 10.464 65.2549 10.576 65.7029 10.576C66.2682 10.576 66.7322 10.4534 67.0949 10.208C67.4682 9.95202 67.7402 9.60535 67.9109 9.16802H69.2389C69.1002 9.65869 68.8709 10.096 68.5509 10.48C68.2309 10.8534 67.8309 11.152 67.3509 11.376C66.8815 11.6 66.3322 11.712 65.7029 11.712Z" fill="#486284"/>
</svg>
