<svg width="126" height="12" viewBox="0 0 126 12" fill="none" xmlns="http://www.w3.org/2000/svg">
<path d="M3.34413 11.584V1.48798H0.000132829V0.383984H8.03213V1.48798H4.68813V11.584H3.34413ZM10.2529 11.584V3.55198H11.5969V11.584H10.2529ZM10.9249 1.82398C10.6582 1.82398 10.4342 1.73865 10.2529 1.56798C10.0822 1.38665 9.99688 1.16265 9.99688 0.895984C9.99688 0.629317 10.0822 0.415984 10.2529 0.255984C10.4342 0.0853173 10.6582 -1.62125e-05 10.9249 -1.62125e-05C11.1809 -1.62125e-05 11.3995 0.0853173 11.5809 0.255984C11.7622 0.415984 11.8529 0.629317 11.8529 0.895984C11.8529 1.16265 11.7622 1.38665 11.5809 1.56798C11.3995 1.73865 11.1809 1.82398 10.9249 1.82398ZM14.437 11.584V3.55198H15.653L15.733 4.95998C15.989 4.45865 16.3517 4.06932 16.821 3.79198C17.301 3.50398 17.845 3.35998 18.453 3.35998C19.0823 3.35998 19.6263 3.48265 20.085 3.72798C20.5437 3.97332 20.901 4.35198 21.157 4.86398C21.413 5.37598 21.541 6.02132 21.541 6.79998V11.584H20.197V6.94398C20.197 6.13332 20.021 5.52532 19.669 5.11998C19.317 4.71465 18.8103 4.51198 18.149 4.51198C17.701 4.51198 17.2957 4.62398 16.933 4.84798C16.581 5.06132 16.2983 5.37598 16.085 5.79198C15.8823 6.20798 15.781 6.71465 15.781 7.31198V11.584H14.437ZM27.6929 11.776C26.9142 11.776 26.2262 11.5947 25.6289 11.232C25.0422 10.8587 24.5835 10.3573 24.2529 9.72798C23.9329 9.08798 23.7729 8.36265 23.7729 7.55198C23.7729 6.74132 23.9329 6.02132 24.2529 5.39198C24.5835 4.76265 25.0422 4.26665 25.6289 3.90398C26.2262 3.54132 26.9195 3.35998 27.7089 3.35998C28.3595 3.35998 28.9355 3.49332 29.4369 3.75998C29.9382 4.02665 30.3222 4.39998 30.5889 4.87998V0.0639839H31.9329V11.584H30.7169L30.5889 10.272C30.4182 10.528 30.1995 10.7733 29.9329 11.008C29.6769 11.232 29.3622 11.4187 28.9889 11.568C28.6155 11.7067 28.1835 11.776 27.6929 11.776ZM27.8369 10.608C28.3702 10.608 28.8395 10.4853 29.2449 10.24C29.6609 9.98398 29.9809 9.62665 30.2049 9.16798C30.4289 8.70932 30.5409 8.17598 30.5409 7.56798C30.5409 6.95998 30.4289 6.42665 30.2049 5.96798C29.9809 5.50932 29.6609 5.15732 29.2449 4.91198C28.8395 4.65598 28.3702 4.52798 27.8369 4.52798C27.3249 4.52798 26.8609 4.65598 26.4449 4.91198C26.0395 5.15732 25.7195 5.50932 25.4849 5.96798C25.2609 6.42665 25.1489 6.95998 25.1489 7.56798C25.1489 8.17598 25.2609 8.70932 25.4849 9.16798C25.7195 9.62665 26.0395 9.98398 26.4449 10.24C26.8609 10.4853 27.3249 10.608 27.8369 10.608ZM38.1921 11.776C37.4455 11.776 36.7788 11.6 36.1921 11.248C35.6055 10.896 35.1415 10.4053 34.8001 9.77598C34.4695 9.14665 34.3041 8.41065 34.3041 7.56798C34.3041 6.71465 34.4695 5.97865 34.8001 5.35998C35.1308 4.73065 35.5895 4.23998 36.1761 3.88798C36.7735 3.53598 37.4561 3.35998 38.2241 3.35998C39.0135 3.35998 39.6855 3.53598 40.2401 3.88798C40.7948 4.23998 41.2161 4.69865 41.5041 5.26398C41.8028 5.82932 41.9521 6.45332 41.9521 7.13598C41.9521 7.24265 41.9521 7.35465 41.9521 7.47198C41.9521 7.58932 41.9468 7.72265 41.9361 7.87198H35.3121V6.83198H40.6241C40.5921 6.09598 40.3468 5.52532 39.8881 5.11998C39.4401 4.70398 38.8748 4.49598 38.1921 4.49598C37.7441 4.49598 37.3228 4.60265 36.9281 4.81598C36.5335 5.01865 36.2135 5.31732 35.9681 5.71198C35.7335 6.10665 35.6161 6.60265 35.6161 7.19998V7.64798C35.6161 8.30932 35.7388 8.86398 35.9841 9.31198C36.2295 9.74932 36.5441 10.08 36.9281 10.304C37.3228 10.528 37.7441 10.64 38.1921 10.64C38.7575 10.64 39.2215 10.5173 39.5841 10.272C39.9575 10.016 40.2295 9.66932 40.4001 9.23198H41.7281C41.5895 9.72265 41.3601 10.16 41.0401 10.544C40.7201 10.9173 40.3201 11.216 39.8401 11.44C39.3708 11.664 38.8215 11.776 38.1921 11.776ZM44.2339 11.584V3.55198H45.4499L45.5619 5.08798C45.7432 4.72532 45.9725 4.41598 46.2499 4.15998C46.5379 3.90398 46.8792 3.70665 47.2739 3.56798C47.6685 3.42932 48.1165 3.35998 48.6179 3.35998V4.76798H48.1539C47.8125 4.76798 47.4872 4.81598 47.1779 4.91198C46.8685 4.99732 46.5912 5.14132 46.3459 5.34398C46.1112 5.53598 45.9245 5.80798 45.7859 6.15998C45.6472 6.51198 45.5779 6.94398 45.5779 7.45598V11.584H44.2339ZM55.8385 11.584V2.27198C55.8385 1.75998 55.9238 1.34398 56.0945 1.02398C56.2652 0.693317 56.5158 0.453317 56.8465 0.303984C57.1878 0.143984 57.6038 0.0639839 58.0945 0.0639839H58.9745V1.21598H58.3025C57.8972 1.21598 57.6092 1.29598 57.4385 1.45598C57.2678 1.61598 57.1825 1.89865 57.1825 2.30398V11.584H55.8385ZM54.6065 4.68798V3.55198H59.1825V4.68798H54.6065ZM64.5999 11.776C63.8532 11.776 63.1812 11.6053 62.5839 11.264C61.9865 10.912 61.5119 10.4213 61.1599 9.79198C60.8185 9.16265 60.6479 8.42132 60.6479 7.56798C60.6479 6.71465 60.8239 5.97332 61.1759 5.34398C61.5279 4.71465 62.0025 4.22932 62.5999 3.88798C63.2079 3.53598 63.8852 3.35998 64.6319 3.35998C65.3892 3.35998 66.0665 3.53598 66.6639 3.88798C67.2612 4.22932 67.7305 4.71465 68.0719 5.34398C68.4132 5.97332 68.5839 6.71465 68.5839 7.56798C68.5839 8.42132 68.4079 9.16265 68.0559 9.79198C67.7146 10.4213 67.2399 10.912 66.6319 11.264C66.0345 11.6053 65.3572 11.776 64.5999 11.776ZM64.5999 10.624C65.0692 10.624 65.5012 10.512 65.8959 10.288C66.2905 10.0533 66.6052 9.71198 66.8399 9.26398C67.0852 8.80532 67.2079 8.23998 67.2079 7.56798C67.2079 6.88532 67.0905 6.31998 66.8559 5.87198C66.6212 5.42398 66.3065 5.08798 65.9119 4.86398C65.5172 4.62932 65.0905 4.51198 64.6319 4.51198C64.1839 4.51198 63.7572 4.62932 63.3519 4.86398C62.9572 5.08798 62.6372 5.42398 62.3919 5.87198C62.1465 6.31998 62.0239 6.88532 62.0239 7.56798C62.0239 8.23998 62.1465 8.80532 62.3919 9.26398C62.6372 9.71198 62.9519 10.0533 63.3359 10.288C63.7305 10.512 64.1519 10.624 64.5999 10.624ZM70.9683 11.584V3.55198H72.1843L72.2963 5.08798C72.4776 4.72532 72.7069 4.41598 72.9843 4.15998C73.2723 3.90398 73.6136 3.70665 74.0083 3.56798C74.4029 3.42932 74.8509 3.35998 75.3523 3.35998V4.76798H74.8883C74.5469 4.76798 74.2216 4.81598 73.9123 4.91198C73.6029 4.99732 73.3256 5.14132 73.0803 5.34398C72.8456 5.53598 72.6589 5.80798 72.5203 6.15998C72.3816 6.51198 72.3123 6.94398 72.3123 7.45598V11.584H70.9683ZM84.8129 11.584V1.48798H81.4689V0.383984H89.5009V1.48798H86.1569V11.584H84.8129ZM90.6714 11.584V3.55198H91.8874L91.9994 5.08798C92.1807 4.72532 92.41 4.41598 92.6874 4.15998C92.9754 3.90398 93.3167 3.70665 93.7114 3.56798C94.106 3.42932 94.554 3.35998 95.0554 3.35998V4.76798H94.5914C94.25 4.76798 93.9247 4.81598 93.6154 4.91198C93.306 4.99732 93.0287 5.14132 92.7834 5.34398C92.5487 5.53598 92.362 5.80798 92.2234 6.15998C92.0847 6.51198 92.0154 6.94398 92.0154 7.45598V11.584H90.6714ZM99.702 11.776C99.0513 11.776 98.5073 11.664 98.07 11.44C97.6327 11.2053 97.3073 10.9013 97.094 10.528C96.8807 10.144 96.774 9.73332 96.774 9.29598C96.774 8.75198 96.9127 8.29332 97.19 7.91998C97.478 7.53598 97.878 7.24798 98.39 7.05598C98.9127 6.85332 99.5207 6.75198 100.214 6.75198H102.358C102.358 6.25065 102.278 5.83465 102.118 5.50398C101.969 5.17332 101.745 4.92265 101.446 4.75198C101.147 4.58132 100.785 4.49598 100.358 4.49598C99.846 4.49598 99.4033 4.62398 99.03 4.87998C98.6567 5.13598 98.4273 5.51465 98.342 6.01598H96.966C97.03 5.43998 97.222 4.95998 97.542 4.57598C97.8727 4.18132 98.2887 3.88265 98.79 3.67998C99.2913 3.46665 99.814 3.35998 100.358 3.35998C101.105 3.35998 101.723 3.49865 102.214 3.77598C102.705 4.04265 103.073 4.42132 103.318 4.91198C103.574 5.39198 103.702 5.95732 103.702 6.60798V11.584H102.502L102.422 10.16C102.315 10.384 102.177 10.5973 102.006 10.8C101.846 10.992 101.654 11.1627 101.43 11.312C101.217 11.4507 100.966 11.5627 100.678 11.648C100.39 11.7333 100.065 11.776 99.702 11.776ZM99.91 10.64C100.283 10.64 100.619 10.5653 100.918 10.416C101.227 10.256 101.489 10.0427 101.702 9.77598C101.915 9.50932 102.075 9.21065 102.182 8.87998C102.299 8.53865 102.358 8.19198 102.358 7.83998V7.79198H100.326C99.814 7.79198 99.398 7.85598 99.078 7.98398C98.758 8.10132 98.5287 8.27198 98.39 8.49598C98.2513 8.70932 98.182 8.95465 98.182 9.23198C98.182 9.51998 98.246 9.77065 98.374 9.98398C98.5127 10.1867 98.71 10.3467 98.966 10.464C99.222 10.5813 99.5367 10.64 99.91 10.64ZM108.288 11.584L105.248 3.55198H106.656L109.072 10.288L111.52 3.55198H112.896L109.84 11.584H108.288ZM118.036 11.776C117.289 11.776 116.623 11.6 116.036 11.248C115.449 10.896 114.985 10.4053 114.644 9.77598C114.313 9.14665 114.148 8.41065 114.148 7.56798C114.148 6.71465 114.313 5.97865 114.644 5.35998C114.975 4.73065 115.433 4.23998 116.02 3.88798C116.617 3.53598 117.3 3.35998 118.068 3.35998C118.857 3.35998 119.529 3.53598 120.084 3.88798C120.639 4.23998 121.06 4.69865 121.348 5.26398C121.647 5.82932 121.796 6.45332 121.796 7.13598C121.796 7.24265 121.796 7.35465 121.796 7.47198C121.796 7.58932 121.791 7.72265 121.78 7.87198H115.156V6.83198H120.468C120.436 6.09598 120.191 5.52532 119.732 5.11998C119.284 4.70398 118.719 4.49598 118.036 4.49598C117.588 4.49598 117.167 4.60265 116.772 4.81598C116.377 5.01865 116.057 5.31732 115.812 5.71198C115.577 6.10665 115.46 6.60265 115.46 7.19998V7.64798C115.46 8.30932 115.583 8.86398 115.828 9.31198C116.073 9.74932 116.388 10.08 116.772 10.304C117.167 10.528 117.588 10.64 118.036 10.64C118.601 10.64 119.065 10.5173 119.428 10.272C119.801 10.016 120.073 9.66932 120.244 9.23198H121.572C121.433 9.72265 121.204 10.16 120.884 10.544C120.564 10.9173 120.164 11.216 119.684 11.44C119.215 11.664 118.665 11.776 118.036 11.776ZM124.078 11.584V0.0639839H125.422V11.584H124.078Z" fill="#486284"/>
</svg>
