<svg width="96" height="12" viewBox="0 0 96 12" fill="none" xmlns="http://www.w3.org/2000/svg">
<path d="M4.14411 11.712C3.37611 11.712 2.67744 11.5574 2.04811 11.248C1.42944 10.9387 0.933443 10.4694 0.560109 9.84002C0.186776 9.20002 0.000109434 8.38402 0.000109434 7.39202V0.320019H1.34411V7.40802C1.34411 8.13335 1.46144 8.72535 1.69611 9.18402C1.94144 9.64269 2.27744 9.97869 2.70411 10.192C3.13078 10.4054 3.62144 10.512 4.17611 10.512C4.74144 10.512 5.23211 10.4054 5.64811 10.192C6.06411 9.97869 6.38944 9.64269 6.62411 9.18402C6.85878 8.72535 6.97611 8.13335 6.97611 7.40802V0.320019H8.32011V7.39202C8.32011 8.38402 8.13344 9.20002 7.76011 9.84002C7.38678 10.4694 6.88544 10.9387 6.25611 11.248C5.62678 11.5574 4.92278 11.712 4.14411 11.712ZM11.1121 11.52V0.320019H14.7281C15.6028 0.320019 16.3174 0.469352 16.8721 0.768019C17.4268 1.05602 17.8374 1.44535 18.1041 1.93602C18.3708 2.42669 18.5041 2.98135 18.5041 3.60002C18.5041 4.19735 18.3654 4.74669 18.0881 5.24802C17.8214 5.74935 17.4054 6.14935 16.8401 6.44802C16.2748 6.74669 15.5494 6.89602 14.6641 6.89602H12.4561V11.52H11.1121ZM17.0321 11.52L14.5681 6.51202H16.0721L18.6161 11.52H17.0321ZM12.4561 5.84002H14.6321C15.4854 5.84002 16.1094 5.63202 16.5041 5.21602C16.9094 4.80002 17.1121 4.26669 17.1121 3.61602C17.1121 2.95469 16.9148 2.43202 16.5201 2.04802C16.1361 1.65335 15.5014 1.45602 14.6161 1.45602H12.4561V5.84002ZM21.1121 11.52V0.320019H22.4561V10.448H27.6721V11.52H21.1121ZM39.648 11.712C38.56 11.712 37.616 11.472 36.816 10.992C36.0267 10.5014 35.4133 9.82402 34.976 8.96002C34.5493 8.08535 34.336 7.07202 34.336 5.92002C34.336 4.76802 34.5493 3.76002 34.976 2.89602C35.4133 2.02135 36.0267 1.34402 36.816 0.864019C37.616 0.373353 38.56 0.128019 39.648 0.128019C40.9387 0.128019 41.9787 0.432019 42.768 1.04002C43.568 1.64802 44.08 2.50669 44.304 3.61602H42.832C42.6613 2.92269 42.3147 2.36802 41.792 1.95202C41.2693 1.52535 40.5547 1.31202 39.648 1.31202C38.8587 1.31202 38.1653 1.49869 37.568 1.87202C36.9813 2.23469 36.5227 2.76269 36.192 3.45602C35.872 4.13869 35.712 4.96002 35.712 5.92002C35.712 6.88002 35.872 7.70669 36.192 8.40002C36.5227 9.08269 36.9813 9.61069 37.568 9.98402C38.1653 10.3467 38.8587 10.528 39.648 10.528C40.5547 10.528 41.2693 10.3254 41.792 9.92002C42.3147 9.50402 42.6613 8.95469 42.832 8.27202H44.304C44.08 9.34935 43.568 10.192 42.768 10.8C41.9787 11.408 40.9387 11.712 39.648 11.712ZM49.3124 11.712C48.6617 11.712 48.1177 11.6 47.6804 11.376C47.243 11.1414 46.9177 10.8374 46.7044 10.464C46.491 10.08 46.3844 9.66935 46.3844 9.23202C46.3844 8.68802 46.523 8.22935 46.8004 7.85602C47.0884 7.47202 47.4884 7.18402 48.0004 6.99202C48.523 6.78935 49.131 6.68802 49.8244 6.68802H51.9684C51.9684 6.18669 51.8884 5.77069 51.7284 5.44002C51.579 5.10935 51.355 4.85869 51.0564 4.68802C50.7577 4.51735 50.395 4.43202 49.9684 4.43202C49.4564 4.43202 49.0137 4.56002 48.6404 4.81602C48.267 5.07202 48.0377 5.45069 47.9524 5.95202H46.5764C46.6404 5.37602 46.8324 4.89602 47.1524 4.51202C47.483 4.11735 47.899 3.81869 48.4004 3.61602C48.9017 3.40269 49.4244 3.29602 49.9684 3.29602C50.715 3.29602 51.3337 3.43469 51.8244 3.71202C52.315 3.97869 52.683 4.35735 52.9284 4.84802C53.1844 5.32802 53.3124 5.89335 53.3124 6.54402V11.52H52.1124L52.0324 10.096C51.9257 10.32 51.787 10.5334 51.6164 10.736C51.4564 10.928 51.2644 11.0987 51.0404 11.248C50.827 11.3867 50.5764 11.4987 50.2884 11.584C50.0004 11.6694 49.675 11.712 49.3124 11.712ZM49.5204 10.576C49.8937 10.576 50.2297 10.5014 50.5284 10.352C50.8377 10.192 51.099 9.97869 51.3124 9.71202C51.5257 9.44535 51.6857 9.14669 51.7924 8.81602C51.9097 8.47469 51.9684 8.12802 51.9684 7.77602V7.72802H49.9364C49.4244 7.72802 49.0084 7.79202 48.6884 7.92002C48.3684 8.03735 48.139 8.20802 48.0004 8.43202C47.8617 8.64535 47.7924 8.89069 47.7924 9.16802C47.7924 9.45602 47.8564 9.70669 47.9844 9.92002C48.123 10.1227 48.3204 10.2827 48.5764 10.4C48.8324 10.5174 49.147 10.576 49.5204 10.576ZM58.8247 11.52C58.3447 11.52 57.9287 11.4454 57.5767 11.296C57.2247 11.1467 56.9527 10.896 56.7607 10.544C56.5794 10.1814 56.4887 9.69602 56.4887 9.08802V4.62402H55.0967V3.48802H56.4887L56.6647 1.55202H57.8327V3.48802H60.1847V4.62402H57.8327V9.08802C57.8327 9.58935 57.9341 9.93069 58.1367 10.112C58.3394 10.2827 58.6967 10.368 59.2087 10.368H60.0727V11.52H58.8247ZM65.836 11.712C65.0787 11.712 64.396 11.536 63.788 11.184C63.1907 10.832 62.716 10.3414 62.364 9.71202C62.0227 9.08269 61.852 8.34669 61.852 7.50402C61.852 6.66135 62.0227 5.92535 62.364 5.29602C62.716 4.66669 63.1907 4.17602 63.788 3.82402C64.396 3.47202 65.0787 3.29602 65.836 3.29602C66.796 3.29602 67.596 3.54669 68.236 4.04802C68.876 4.53869 69.2813 5.20002 69.452 6.03202H68.076C67.9693 5.53069 67.708 5.14135 67.292 4.86402C66.876 4.58669 66.3853 4.44802 65.82 4.44802C65.3613 4.44802 64.9347 4.56535 64.54 4.80002C64.156 5.02402 63.8413 5.36535 63.596 5.82402C63.3507 6.27202 63.228 6.83202 63.228 7.50402C63.228 8.00535 63.2973 8.44802 63.436 8.83202C63.5853 9.21602 63.7773 9.54135 64.012 9.80802C64.2467 10.064 64.5187 10.256 64.828 10.384C65.148 10.512 65.4787 10.576 65.82 10.576C66.204 10.576 66.5507 10.5174 66.86 10.4C67.1693 10.272 67.4307 10.0907 67.644 9.85602C67.8573 9.61069 68.0013 9.31735 68.076 8.97602H69.452C69.2813 9.79735 68.8707 10.4587 68.22 10.96C67.58 11.4614 66.7853 11.712 65.836 11.712ZM71.8286 11.52V1.90735e-05H73.1726V4.84802C73.4499 4.35735 73.8286 3.97869 74.3086 3.71202C74.7886 3.43469 75.3219 3.29602 75.9086 3.29602C76.5273 3.29602 77.0606 3.42402 77.5086 3.68002C77.9673 3.92535 78.3193 4.30402 78.5646 4.81602C78.8206 5.32802 78.9486 5.97335 78.9486 6.75202V11.52H77.6206V6.89602C77.6206 6.08535 77.4499 5.47735 77.1086 5.07202C76.7673 4.65602 76.2713 4.44802 75.6206 4.44802C75.1619 4.44802 74.7459 4.56002 74.3726 4.78402C74.0099 4.99735 73.7166 5.31735 73.4926 5.74402C73.2793 6.16002 73.1726 6.67202 73.1726 7.28002V11.52H71.8286ZM85.0681 11.712C84.3214 11.712 83.6548 11.536 83.0681 11.184C82.4814 10.832 82.0174 10.3414 81.6761 9.71202C81.3454 9.08269 81.1801 8.34669 81.1801 7.50402C81.1801 6.65069 81.3454 5.91469 81.6761 5.29602C82.0068 4.66669 82.4654 4.17602 83.0521 3.82402C83.6494 3.47202 84.3321 3.29602 85.1001 3.29602C85.8894 3.29602 86.5614 3.47202 87.1161 3.82402C87.6708 4.17602 88.0921 4.63469 88.3801 5.20002C88.6788 5.76535 88.8281 6.38935 88.8281 7.07202C88.8281 7.17869 88.8281 7.29069 88.8281 7.40802C88.8281 7.52535 88.8228 7.65869 88.8121 7.80802H82.1881V6.76802H87.5001C87.4681 6.03202 87.2228 5.46135 86.7641 5.05602C86.3161 4.64002 85.7508 4.43202 85.0681 4.43202C84.6201 4.43202 84.1988 4.53869 83.8041 4.75202C83.4094 4.95469 83.0894 5.25335 82.8441 5.64802C82.6094 6.04269 82.4921 6.53869 82.4921 7.13602V7.58402C82.4921 8.24535 82.6148 8.80002 82.8601 9.24802C83.1054 9.68535 83.4201 10.016 83.8041 10.24C84.1988 10.464 84.6201 10.576 85.0681 10.576C85.6334 10.576 86.0974 10.4534 86.4601 10.208C86.8334 9.95202 87.1054 9.60535 87.2761 9.16802H88.6041C88.4654 9.65869 88.2361 10.096 87.9161 10.48C87.5961 10.8534 87.1961 11.152 86.7161 11.376C86.2468 11.6 85.6974 11.712 85.0681 11.712ZM91.1099 11.52V3.48802H92.3259L92.4379 5.02402C92.6192 4.66135 92.8485 4.35202 93.1259 4.09602C93.4139 3.84002 93.7552 3.64269 94.1499 3.50402C94.5445 3.36535 94.9925 3.29602 95.4939 3.29602V4.70402H95.0299C94.6885 4.70402 94.3632 4.75202 94.0539 4.84802C93.7445 4.93335 93.4672 5.07735 93.2219 5.28002C92.9872 5.47202 92.8005 5.74402 92.6619 6.09602C92.5232 6.44802 92.4539 6.88002 92.4539 7.39202V11.52H91.1099Z" fill="#486284"/>
</svg>
